<?xml version="1.0" encoding="UTF-8"?>
<svg version="1.1" xmlns="http://www.w3.org/2000/svg" width="2000" height="2250">
<path d="M0 0 C0.68823853 0.16502014 1.37647705 0.33004028 2.08557129 0.50006104 C43.4911319 10.45082931 84.29089744 23.34321922 123.9375 38.875 C124.9569722 39.27270096 124.9569722 39.27270096 125.99703979 39.67843628 C147.86274167 48.24419876 147.86274167 48.24419876 157 55.125 C157.86625 55.76695312 158.7325 56.40890625 159.625 57.0703125 C162 59 162 59 163.66821289 60.88305664 C166.6785695 63.61604818 170.0197734 65.14121607 173.68359375 66.80078125 C174.82235962 67.33040466 174.82235962 67.33040466 175.98413086 67.87072754 C177.61599499 68.62945495 179.24950826 69.38464358 180.88449097 70.1366272 C185.21478824 72.13108892 189.52948712 74.15863641 193.84375 76.1875 C194.71084091 76.59498978 195.57793182 77.00247955 196.47129822 77.4223175 C266.72184093 110.5579766 333.0554136 154.62030795 392.1652832 204.91699219 C395.57001037 207.80952162 399.01757422 210.63839905 402.5 213.4375 C407.2549105 217.30390167 411.76661645 221.38528868 416.234375 225.57592773 C419.02358791 228.19081483 421.84656616 230.75082962 424.73583984 233.25512695 C428.71734122 236.73261811 432.61076298 240.29233602 436.46484375 243.91015625 C437.14876694 244.55203384 437.83269012 245.19391144 438.53733826 245.85523987 C445.65008266 252.56413034 452.59167911 259.43998565 459.49438477 266.36401367 C461.58950092 268.46457104 463.6900231 270.55961874 465.79101562 272.65429688 C467.15396713 274.01790811 468.51660897 275.38182893 469.87890625 276.74609375 C470.49254532 277.35770859 471.10618439 277.96932343 471.73841858 278.59947205 C475.4423908 282.32328397 478.95916308 286.16390636 482.38417053 290.14605713 C485.12220553 293.28757706 488.00888224 296.28833758 490.875 299.3125 C495.68933327 304.43156999 500.28090011 309.64270886 504.66796875 315.13671875 C507.49004491 318.60167994 510.4294293 321.95260821 513.375 325.3125 C518.99864728 331.75695736 524.35927078 338.36116898 529.57128906 345.14160156 C531.08158465 347.10612139 532.5993567 349.06473523 534.1171875 351.0234375 C541.96954451 361.1901235 549.55092005 371.53508939 557 382 C557.56332031 382.78745605 558.12664062 383.57491211 558.70703125 384.38623047 C572.45934452 403.63714078 585.02829618 423.59973299 597 444 C597.47083008 444.80131348 597.94166016 445.60262695 598.42675781 446.42822266 C605.68069537 458.82554499 612.49197792 471.44249708 619.21557617 484.13208008 C622.75913708 490.81742532 626.34245965 497.47323337 630.0625 504.0625 C650.97272782 541.34150859 673.30891832 582.12806812 680.8125 624.55859375 C681.77833289 629.10002048 683.95249941 632.4708137 686.421875 636.35693359 C689.15979811 640.94244653 691.05268421 645.85130497 693 650.8125 C693.64183228 652.43478516 693.64183228 652.43478516 694.29663086 654.08984375 C697.0301457 661.14114575 699.46976112 668.23274022 701.5625 675.5 C701.80162109 676.32862549 702.04074219 677.15725098 702.28710938 678.01098633 C703.3622895 681.94702819 704.13532203 685.72761781 704.515625 689.79296875 C704.84288592 693.23501885 705.5240044 695.73853239 707.1875 698.8125 C717.78871504 720.86790141 721.29427785 746.8277602 725.875 770.6875 C726.03233612 771.49831024 726.18967224 772.30912048 726.35177612 773.14450073 C726.80173933 775.47391857 727.24225711 777.80491862 727.6796875 780.13671875 C727.81374496 780.82739441 727.94780243 781.51807007 728.08592224 782.22967529 C728.8789928 786.53713113 729.12000228 790.62488714 729 795 C718.43569 785.53613896 718.85151736 765.15945655 717 752 C716.76916367 750.40220846 716.53751899 748.80453327 716.3046875 747.20703125 C715.86061594 744.13918477 715.42430516 741.07062946 715 738 C715 740.97 715 743.94 715 747 C713.68 747 712.36 747 711 747 C708.01818512 736.64054454 705.05788706 726.27633603 702.2109375 715.87890625 C690.31361363 672.49006988 676.60838768 630.43150042 659 589 C661.97 598.24 664.94 607.48 668 617 C667.34 617.33 666.68 617.66 666 618 C665.69932617 617.31824707 665.39865234 616.63649414 665.08886719 615.93408203 C644.97249117 570.37193484 624.04073474 525.10186599 599 482 C598.38398926 480.93813477 597.76797852 479.87626953 597.13330078 478.78222656 C584.81034759 457.60670176 572.27467177 436.4434047 557.43652344 416.91210938 C555.80058837 414.7345697 554.19984087 412.53344607 552.6015625 410.328125 C546.14513778 401.43380082 539.55024082 392.7942773 532.3125 384.52294922 C531.02504813 383.0290644 529.777594 381.5010053 528.53125 379.97265625 C520.45165291 370.11226859 511.38411488 361.25837914 502.28076172 352.35449219 C501.46407516 351.55060059 501.46407516 351.55060059 500.63088989 350.73046875 C499.59325301 349.70948444 498.55145707 348.6927059 497.50509644 347.68066406 C496.2986385 346.49121404 495.14373442 345.24988147 494 344 C494 343.34 494 342.68 494 342 C494.99 342 495.98 342 497 342 C496.21625 341.030625 495.4325 340.06125 494.625 339.0625 C493.96371094 338.24458984 493.96371094 338.24458984 493.2890625 337.41015625 C492.0333609 335.86733563 492.0333609 335.86733563 490 335 C490 335.66 490 336.32 490 337 C486.45669668 336.72985453 485.16509128 336.16109713 482.578125 333.63671875 C481.42570312 332.17685547 481.42570312 332.17685547 480.25 330.6875 C479.47140625 329.72199219 478.6928125 328.75648438 477.890625 327.76171875 C476.23687968 325.34602052 475.40608795 323.84938376 475 321 C476.98 321.33 478.96 321.66 481 322 C479.44395612 320.38957012 477.87987244 318.78690632 476.3125 317.1875 C475.00732422 315.84751953 475.00732422 315.84751953 473.67578125 314.48046875 C470.26799005 311.32142143 467.18160139 309.41703578 462.8125 307.875 C451.51279631 303.08091358 441.88299693 289.9674735 433.375 281.375 C430.65665547 278.62980446 427.93483134 275.88812568 425.2109375 273.1484375 C424.60551117 272.53471283 424.00008484 271.92098816 423.37631226 271.28866577 C419.66777798 267.55928954 415.83575515 264.04014327 411.83828735 260.62173462 C409.97975241 258.98213761 408.234552 257.26951241 406.5 255.5 C403.55399785 252.50765625 400.47016993 249.74675828 397.2890625 247.0078125 C395.06465752 245.05671325 392.88902402 243.05891092 390.72021484 241.04638672 C385.61086564 236.30815304 380.39031677 231.79808015 374.95703125 227.4296875 C372.16995778 225.13964827 369.45780767 222.78639829 366.75195312 220.40209961 C358.84224867 213.43995471 350.6186989 207.01416911 342.20458984 200.67675781 C339.19788809 198.38993305 336.23192675 196.05292911 333.26367188 193.71655273 C292.6949818 161.83302765 248.11243843 136.18463146 201.58081055 114.11547852 C196.1088225 111.51399634 190.68525397 108.8387981 185.29174805 106.07861328 C150.17861877 88.16489344 113.22031121 73.85728145 76 61 C74.77007324 60.57009766 73.54014648 60.14019531 72.27294922 59.69726562 C-1.21914164 34.03904845 -78.44470354 18.14454654 -155.875 10.6875 C-156.64706787 10.61204956 -157.41913574 10.53659912 -158.21459961 10.4588623 C-164.13741941 9.89042718 -170.06518947 9.4240108 -176 9 C-177.20669342 8.9135321 -178.41338684 8.82706421 -179.65664673 8.73797607 C-201.58338683 7.20011462 -223.43798664 6.6790018 -245.4152832 6.73925781 C-249.59688523 6.75064185 -253.77823216 6.74385898 -257.95982552 6.73237991 C-287.28793311 6.66421799 -316.56671332 7.68765988 -345.75 10.75 C-346.556651 10.83270142 -347.363302 10.91540283 -348.19439697 11.00061035 C-367.56292484 13.0018245 -386.80066043 15.76846946 -406 19 C-407.23888977 19.20789154 -407.23888977 19.20789154 -408.50280762 19.41998291 C-452.77336793 26.8978406 -496.36176446 37.96633183 -539 52 C-539.71420105 52.2341864 -540.4284021 52.4683728 -541.16424561 52.70965576 C-595.72895701 70.62552243 -649.1837002 93.65197024 -699.0078125 122.28564453 C-704.30345893 125.31975266 -709.62197371 128.31340499 -714.9375 131.3125 C-716.88421021 132.41259121 -718.83083404 133.51283532 -720.77734375 134.61328125 C-722.18489583 135.40885417 -723.59244792 136.20442708 -725 137 C-717.4042546 133.21387733 -709.81332642 129.41919651 -702.24795532 125.57266235 C-681.35004692 114.95070992 -660.30894944 104.8901664 -638.80809021 95.54867554 C-634.02175767 93.46401909 -629.28841523 91.28293697 -624.56787109 89.05297852 C-599.94361159 77.47511337 -573.79922167 68.56274924 -548 60 C-547.05318359 59.68530762 -546.10636719 59.37061523 -545.13085938 59.04638672 C-542.4654546 58.16643166 -539.79664926 57.29829022 -537.125 56.4375 C-536.35140137 56.18548828 -535.57780273 55.93347656 -534.78076172 55.67382812 C-531.32222332 54.58256845 -528.66483557 54 -525 54 C-526.39655297 57.49873271 -527.71260484 58.70891831 -531.125 60.25 C-531.84945312 60.58515625 -532.57390625 60.9203125 -533.3203125 61.265625 C-533.87460937 61.50796875 -534.42890625 61.7503125 -535 62 C-533.86820313 61.69964844 -532.73640625 61.39929688 -531.5703125 61.08984375 C-530.08863779 60.70535854 -528.60686163 60.32126416 -527.125 59.9375 C-526.00544922 59.63875977 -526.00544922 59.63875977 -524.86328125 59.33398438 C-519.2265625 57.88671875 -519.2265625 57.88671875 -517 59 C-525.53651418 62.68384901 -534.19151144 65.95201861 -542.94439697 69.07418823 C-546.07773586 70.19282372 -549.2077445 71.32065322 -552.33807373 72.44767761 C-554.84767943 73.35110167 -557.35761344 74.2536072 -559.86767578 75.15576172 C-560.71291809 75.4595575 -561.5581604 75.76335327 -562.42901611 76.07635498 C-564.14028461 76.69114087 -565.85166939 77.30560319 -567.56317139 77.91973877 C-615.17015109 95.00451535 -662.22014314 113.57691555 -705.91430664 139.34008789 C-709.41117875 141.22118873 -712.77230181 142.31471609 -716.58984375 143.3203125 C-726.28361471 146.05405018 -734.08005533 151.61807431 -742.04296875 157.54492188 C-752.1994227 165.09637715 -762.49843288 172.4360063 -773 179.5 C-774.27145874 180.36286621 -774.27145874 180.36286621 -775.56860352 181.24316406 C-789.16148976 190.30774958 -789.16148976 190.30774958 -795.55859375 191.46142578 C-798.326379 192.07199921 -799.60272139 192.95364182 -801.75 194.7734375 C-802.43433105 195.34553955 -803.11866211 195.9176416 -803.82373047 196.50708008 C-804.54189941 197.12349365 -805.26006836 197.73990723 -806 198.375 C-806.75039551 199.00623779 -807.50079102 199.63747559 -808.27392578 200.2878418 C-810.52348623 202.1832029 -812.76247895 204.0904527 -815 206 C-816.20508695 207.02029027 -817.41076167 208.03988697 -818.6171875 209.05859375 C-820.23617656 210.42630693 -821.85432068 211.7949183 -823.46899414 213.16772461 C-826.76002735 215.96481926 -830.08499399 218.71450386 -833.4375 221.4375 C-839.45060576 226.33513107 -845.32335577 231.38898488 -851.19726562 236.45166016 C-852.97485913 237.97840691 -854.75952015 239.49641708 -856.546875 241.01171875 C-862.95463465 246.45258769 -869.25081731 251.98176213 -875.38696289 257.72851562 C-878.18102718 260.34239203 -881.0136725 262.89693817 -883.90234375 265.40625 C-887.92190584 268.90640363 -891.81459174 272.52653474 -895.6875 276.1875 C-903.76327133 283.80177204 -903.76327133 283.80177204 -907.15234375 286.8671875 C-918.16284027 296.83722275 -928.54563718 307.45414215 -939 318 C-934.84294427 314.47072299 -930.75416643 310.89073981 -926.75 307.1875 C-922.27043739 303.09799454 -917.66738062 299.2235912 -912.94921875 295.4140625 C-909.58631957 292.66138476 -906.29060271 289.83829538 -903 287 C-898.7972644 283.37557542 -894.56450038 279.80432022 -890.25 276.3125 C-886.7411601 273.46541499 -883.34133363 270.54187448 -880 267.5 C-875.77635723 263.65489125 -871.4130207 260.03241829 -866.97265625 256.44140625 C-863.66248057 253.72279942 -860.42517546 250.92901421 -857.1875 248.125 C-850.83849823 242.64584366 -844.31787604 237.42301534 -837.68066406 232.29833984 C-836.08304023 231.0641499 -834.4905914 229.82326962 -832.8984375 228.58203125 C-799.82124542 202.91580499 -765.11452833 179.18956761 -729 158 C-728.09991211 157.47067871 -727.19982422 156.94135742 -726.27246094 156.39599609 C-709.40665488 146.50223197 -692.33417107 137.04770094 -675 128 C-673.94941406 127.45134277 -672.89882813 126.90268555 -671.81640625 126.33740234 C-599.0381643 88.58311574 -520.21323977 61.38438659 -395.77552795 39.75209045 C-385.60931467 38.91818243 -385.60931467 38.91818243 -376 36 C-383.57510969 36.55214051 -390.92379602 37.60823053 -398.375 39.0625 C-400.2778373 39.43256728 -402.1814651 39.79859786 -404.0859375 40.16015625 C-404.9114209 40.32136963 -405.7369043 40.48258301 -406.58740234 40.64868164 C-409.09177037 41.01336345 -411.47286484 41.06049143 -414 41 C-411.3401439 37.55783328 -408.09711714 37.00495326 -404 36 C-404 35.34 -404 34.68 -404 34 C-404.62865967 34.08564209 -405.25731934 34.17128418 -405.9050293 34.25952148 C-417.26075765 35.79778488 -428.55794976 37.2937006 -440 38 C-435.38 38 -430.76 38 -426 38 C-426 38.99 -426 39.98 -426 41 C-431.27807595 42.93562093 -436.60276413 44.01950718 -442.1015625 45.1015625 C-444.12748755 45.50937676 -446.15328017 45.91784934 -448.17895508 46.3269043 C-449.23305573 46.53890472 -450.28715637 46.75090515 -451.37319946 46.96932983 C-467.85248477 50.2920969 -484.15859925 53.73463131 -500.21533203 58.75048828 C-501.22321777 59.06356934 -502.23110352 59.37665039 -503.26953125 59.69921875 C-504.12135986 59.97596436 -504.97318848 60.25270996 -505.85083008 60.5378418 C-508 61 -508 61 -511 60 C-506.37588932 57.31780811 -501.75004575 54.63867316 -497.12109375 51.96484375 C-494.06422896 50.19841623 -491.01352428 48.42271593 -487.97265625 46.62890625 C-486.79428493 45.94008005 -485.6159005 45.25127627 -484.4375 44.5625 C-483.42558594 43.96566406 -482.41367187 43.36882812 -481.37109375 42.75390625 C-470.781095 37.24416183 -460.09320027 35.20936313 -448.4375 33.125 C-447.49416809 32.9535849 -446.55083618 32.7821698 -445.57891846 32.6055603 C-398.12437602 23.9917011 -350.20158274 18.11277279 -302 16 C-300.14665039 15.91540527 -300.14665039 15.91540527 -298.25585938 15.82910156 C-210.2537536 11.94597992 -121.73209297 19.50025824 258 159 C258.85239258 159.52239258 259.70478516 160.04478516 260.58300781 160.58300781 C262.62433563 161.83697888 264.65796595 163.10206048 266.6875 164.375 C267.72261719 165.02210938 268.75773437 165.66921875 269.82421875 166.3359375 C272 168 272 168 273 171 C274.59837254 172.40276178 274.59837254 172.40276178 276.62109375 173.6796875 C277.38276855 174.18975342 278.14444336 174.69981934 278.92919922 175.2253418 C279.75693848 175.769729 280.58467773 176.31411621 281.4375 176.875 C283.17967502 178.04365272 284.92052872 179.21427726 286.66015625 180.38671875 C287.54977051 180.98532715 288.43938477 181.58393555 289.35595703 182.20068359 C300.25191662 189.61557022 310.83459294 197.50065855 321.21875 205.61328125 C323.25437283 207.19803148 325.29883412 208.77101088 327.34375 210.34375 C335.40421177 216.55668545 343.33943484 222.8643756 351.0625 229.4921875 C353.82297817 231.84887232 356.618603 234.15124342 359.4375 236.4375 C369.4233303 244.58801851 379.13018482 252.98568976 388.49902344 261.84057617 C391.83040356 264.98870227 395.20276383 268.07730748 398.62915039 271.12207031 C403.81325778 275.78289454 408.77672725 280.63181123 413.69921875 285.56640625 C414.5785054 286.44473618 415.45779205 287.3230661 416.36372375 288.22801208 C418.20603138 290.06964445 420.04709788 291.91251916 421.88696289 293.7565918 C424.68718845 296.56218785 427.49273172 299.36238656 430.29882812 302.16210938 C432.09927914 303.96322104 433.89942001 305.76464279 435.69921875 307.56640625 C436.94320686 308.80735802 436.94320686 308.80735802 438.21232605 310.07337952 C442.46799973 314.34607579 446.57934203 318.68534392 450.50352478 323.26541138 C452.88138976 326.02163312 455.38490199 328.65809995 457.875 331.3125 C462.40901694 336.1810575 466.68492781 341.19332164 470.8515625 346.3828125 C473.01511772 349.01841613 475.2638956 351.54423375 477.5625 354.0625 C481.93664768 358.87481792 485.99203641 363.88113346 490 369 C490.86420387 370.09535157 491.72880919 371.1903865 492.59375 372.28515625 C515.91346202 401.83339729 537.65763919 432.31919237 558 464 C558.62100586 464.96276855 559.24201172 465.92553711 559.88183594 466.91748047 C569.35808895 481.66203601 577.55047899 495.88872348 582.01953125 512.90625 C584.00515874 519.17165628 587.27464544 523.65821121 592.390625 527.68359375 C596.5646115 531.20897576 598.63056542 535.17244205 600.9375 540.0625 C601.3922168 541.0016626 601.84693359 541.9408252 602.31542969 542.90844727 C629.04727581 598.98260235 649.97721383 658.02878491 666 718 C666.3132724 719.17054932 666.3132724 719.17054932 666.63287354 720.36474609 C679.71230178 769.39939502 689.09910961 819.50670117 693.81573486 870.04888916 C693.98867565 871.88009092 694.17148349 873.71035323 694.35498047 875.54052734 C696.02974194 892.59422774 696.20216863 909.62869779 696.25 926.75 C696.25535767 927.81493683 696.26071533 928.87987366 696.26623535 929.9770813 C696.31136465 941.79902128 696.03269074 953.53909696 695.109375 965.328125 C695.03189026 966.32237488 694.95440552 967.31662476 694.87457275 968.34100342 C694.27491463 975.2963072 693.2360453 982.13066265 692 989 C691.67 989 691.34 989 691 989 C690.99413376 988.31652496 690.98826752 987.63304993 690.98222351 986.92886353 C690.29267188 909.81619743 683.22773119 835.15186884 666.45918274 759.74789429 C665.52172191 755.51159832 664.66181661 751.29053193 664 747 C663.34 747 662.68 747 662 747 C662 748.32 662 749.64 662 751 C661.34 751 660.68 751 660 751 C656.97222143 741.52309977 653.98242701 732.0388008 651.16796875 722.49609375 C633.05766002 661.20576441 611.39646307 601.38741213 584 543.625 C583.60067261 542.78228546 583.20134521 541.93957092 582.78991699 541.07131958 C578.11589267 531.23252012 573.28661087 521.52567385 568 512 C566.515 514.475 566.515 514.475 565 517 C568.36819365 522.91329175 571.79149725 528.7331655 575.56103516 534.39746094 C579.33829797 540.08429687 582.27626783 545.33490229 584 552 C574.54689208 548.9395972 569.9855013 538.66013613 565.72558594 530.33349609 C565.15614258 529.19219238 564.58669922 528.05088867 564 526.875 C563.3867871 525.66825101 562.77251775 524.46203831 562.15722656 523.25634766 C559.28607861 517.61543007 556.47319193 511.94602885 553.68115234 506.265625 C541.82404145 482.19077792 526.58809781 459.78263001 511 438 C510.43361816 437.2054541 509.86723633 436.4109082 509.28369141 435.59228516 C498.82741018 420.93548923 487.89284715 406.74997694 476.48828125 392.8203125 C475.18590621 391.22738135 473.88933968 389.6297048 472.59375 388.03125 C464.29054045 377.80265853 455.74856192 367.79179703 446.79785156 358.12402344 C444.27139555 355.39515653 441.7964758 352.6347718 439.375 349.8125 C436.22933516 346.17767676 432.85540298 342.81494319 429.40625 339.46875 C427.42460026 337.43562883 425.56798691 335.37018234 423.71484375 333.22265625 C420.00308847 328.94691346 416.07655085 324.92832587 412.0625 320.9375 C411.06573242 319.93493164 411.06573242 319.93493164 410.04882812 318.91210938 C406.08999506 314.96095591 402.01312979 311.21446069 397.77905273 307.56079102 C395.58361679 305.63470044 393.53320161 303.59576166 391.5 301.5 C388.14743221 298.10731601 384.70524318 294.90899316 381.0859375 291.8046875 C378.74974499 289.78348724 376.47035149 287.70621161 374.1875 285.625 C369.89040173 281.74649273 365.46241246 278.07134032 360.9609375 274.43359375 C358.30230944 272.24846805 355.6995161 270.0160025 353.10546875 267.75561523 C346.09079677 261.65241516 338.83484205 255.9512103 331.4140625 250.3515625 C328.44405381 248.10858033 325.5043485 245.83314766 322.5859375 243.5234375 C313.38359139 236.24636555 303.98194758 229.43449684 294.25 222.8828125 C290.95917341 220.66551775 287.74231866 218.37492706 284.5625 216 C262.28109447 199.62368192 237.91698289 185.7993403 214 172 C214 172.66 214 173.32 214 174 C205.18129461 172.05553021 198.01925413 167.76115514 190.4375 163.0625 C177.16240212 154.36419537 177.16240212 154.36419537 162.11352539 150.27905273 C159.55059345 149.94066401 157.21403014 149.23842746 154.74609375 148.47265625 C153.40889282 148.06092163 153.40889282 148.06092163 152.04467773 147.64086914 C151.36993408 147.42938232 150.69519043 147.21789551 150 147 C151.72947876 147.83023682 151.72947876 147.83023682 153.49389648 148.67724609 C157.86061849 150.77593887 162.2225489 152.88443871 166.58325195 154.99560547 C168.45439805 155.89988872 170.3267546 156.80167248 172.20043945 157.70068359 C184.48929452 163.59959767 196.37448294 169.8772498 208 177 C205 178 205 178 202.296875 176.875 C201.11026108 176.2582456 199.92843358 175.63224432 198.75 175 C197.28751828 174.2466367 195.82387141 173.49553306 194.359375 172.74609375 C193.51955078 172.31409668 192.67972656 171.88209961 191.81445312 171.43701172 C122.65671085 136.12624914 48.62588459 110.26026852 -25 86 C-25 85.67 -25 85.34 -25 85 C-16.60444631 85.4097166 -8.89645174 87.482518 -0.875 89.875 C-0.21756805 90.06786591 0.43986389 90.26073181 1.11721802 90.45944214 C16.92503746 95.10017627 32.47530069 100.49653516 48 106 C45.67265195 103.67265195 41.58157097 102.8842931 38.5 101.75 C37.232771 101.28074097 37.232771 101.28074097 35.93994141 100.80200195 C29.4293715 98.43016432 22.86401118 96.38629262 16.16992188 94.59863281 C14.43062056 94.12053501 12.7123079 93.56722855 11 93 C10.67 92.34 10.34 91.68 10 91 C16.27 91.99 22.54 92.98 29 94 C13.70483528 88.39314717 -1.57852142 82.91019707 -17.25 78.4375 C-18.37116211 78.11587891 -19.49232422 77.79425781 -20.64746094 77.46289062 C-27.38043524 75.58552411 -34.09994417 74.11588185 -41 73 C-40.67 74.32 -40.34 75.64 -40 77 C-42.31 77.33 -44.62 77.66 -47 78 C-41.06 79.32 -35.12 80.64 -29 82 C-29 82.33 -29 82.66 -29 83 C-37.84370849 83.27690672 -46.38785423 82.21524239 -55.125 81 C-56.30002075 80.84026703 -56.30002075 80.84026703 -57.4987793 80.67730713 C-70.84316854 78.85916241 -84.11538721 76.67507109 -97.38964844 74.40652466 C-123.23474015 69.98988453 -148.75581725 66.78381184 -175 66 C-175 65.34 -175 64.68 -175 64 C-171.7 63.34 -168.4 62.68 -165 62 C-166.01320313 61.93941406 -167.02640625 61.87882812 -168.0703125 61.81640625 C-169.42188514 61.73193296 -170.77344709 61.64728843 -172.125 61.5625 C-172.79015625 61.52318359 -173.4553125 61.48386719 -174.140625 61.44335938 C-178.15018817 61.187848 -182.04994196 60.73217587 -186 60 C-185.67 61.32 -185.34 62.64 -185 64 C-185.89396484 63.78561279 -186.78792969 63.57122559 -187.70898438 63.3503418 C-199.70288289 60.76116122 -211.26970825 60.64998818 -223.5 60.8125 C-225.49868771 60.82758995 -227.49738658 60.84127065 -229.49609375 60.85351562 C-234.33101126 60.88614318 -239.1653778 60.93768169 -244 61 C-244 60.67 -244 60.34 -244 60 C-241.36 59.67 -238.72 59.34 -236 59 C-247.16233988 58.27595633 -256.83488592 59.89683113 -266.0078125 66.55078125 C-274.23405889 71.41791362 -282.85612464 71.23005002 -292.21405029 71.52307129 C-297.68781167 71.69957946 -303.15572463 71.99339664 -308.625 72.2734375 C-309.74401703 72.32838379 -310.86303406 72.38333008 -312.01596069 72.43994141 C-403.88456672 77.12676801 -495.93297362 100.66973442 -609 147 C-609.99644531 147.44375977 -610.99289062 147.88751953 -612.01953125 148.34472656 C-637.14282264 159.58365592 -662.05688016 171.40963762 -686 185 C-687.00272949 185.56654297 -688.00545898 186.13308594 -689.03857422 186.71679688 C-743.47466955 217.54578614 -796.17361412 253.01064577 -842.26953125 295.515625 C-844.4448292 297.49486605 -846.64084379 299.43721298 -848.859375 301.3671875 C-858.94760668 310.17146242 -868.57943707 319.48890575 -878.0625 328.9375 C-878.75206787 329.62247559 -879.44163574 330.30745117 -880.15209961 331.01318359 C-888.6791494 339.18690917 -888.6791494 339.18690917 -895 349 C-894.01 349.33 -893.02 349.66 -892 350 C-892.4903868 354.56877037 -894.14846997 356.74016568 -897.25 360.0625 C-898.01828125 360.89910156 -898.7865625 361.73570312 -899.578125 362.59765625 C-906.03252033 369 -906.03252033 369 -911 369 C-911.33 368.01 -911.66 367.02 -912 366 C-923.74168828 378.54323541 -923.74168828 378.54323541 -932.86328125 392.89453125 C-934.62423775 396.15623419 -937.12647166 398.7944059 -939.5625 401.5625 C-940.65715289 402.82343549 -941.75089528 404.08516196 -942.84375 405.34765625 C-943.38257813 405.96914551 -943.92140625 406.59063477 -944.4765625 407.23095703 C-1002.0151718 474.04582289 -1048.20116491 552.71594011 -1082 634 C-1082.25785278 634.6175415 -1082.51570557 635.23508301 -1082.78137207 635.87133789 C-1091.30698729 656.30339269 -1098.87895013 677.04089041 -1106 698 C-1106.22300781 698.65464233 -1106.44601562 699.30928467 -1106.67578125 699.98376465 C-1114.07545973 721.74084444 -1120.25741071 743.75557705 -1126 766 C-1126.32597168 767.25458008 -1126.65194336 768.50916016 -1126.98779297 769.80175781 C-1137.77356423 811.6664439 -1144.85935299 854.45011444 -1149.25 897.4375 C-1149.3272229 898.18009064 -1149.4044458 898.92268127 -1149.48400879 899.68777466 C-1152.27421568 926.93562752 -1153.34644893 954.22785606 -1153.26074219 981.60449219 C-1153.24934884 985.26725115 -1153.25615333 988.92971913 -1153.26762009 992.59246826 C-1153.34057583 1020.13979287 -1152.0180273 1047.58505045 -1149.25 1075 C-1149.12594788 1076.24814987 -1149.12594788 1076.24814987 -1148.99938965 1077.52151489 C-1141.51094967 1152.19577098 -1124.75778111 1225.1918967 -1100 1296 C-1099.77417236 1296.648479 -1099.54834473 1297.29695801 -1099.31567383 1297.96508789 C-1088.11786126 1330.08781691 -1074.84361787 1361.39945028 -1060 1392 C-1059.69535828 1392.62884094 -1059.39071655 1393.25768188 -1059.07684326 1393.90557861 C-1051.09846444 1410.35152987 -1042.7262048 1426.49780065 -1033.54980469 1442.31494141 C-1031.99657242 1445.00593833 -1030.46754597 1447.70933173 -1028.9453125 1450.41796875 C-1013.4711631 1477.90695666 -996.17059141 1504.9258821 -977 1530 C-976.19237952 1531.07006441 -975.38509121 1532.1403796 -974.578125 1533.2109375 C-964.93259779 1545.93887735 -954.74828959 1558.25242771 -944.37255859 1570.38916016 C-942.96681432 1572.03894684 -941.57072891 1573.69654745 -940.17578125 1575.35546875 C-933.0100553 1583.84313303 -925.50294559 1591.96289253 -917.86279297 1600.02392578 C-916.08496345 1601.9098697 -914.32253396 1603.80869762 -912.56640625 1605.71484375 C-906.05285495 1612.77903486 -899.40826035 1619.69374082 -892.625 1626.5 C-891.88789795 1627.24169434 -891.1507959 1627.98338867 -890.39135742 1628.74755859 C-886.32100108 1632.80643879 -882.16214289 1636.69475339 -877.78857422 1640.42578125 C-875.94548032 1642.04798565 -874.21859488 1643.74713629 -872.5 1645.5 C-869.53264677 1648.51413582 -866.42654708 1651.29917333 -863.22265625 1654.05859375 C-860.67023117 1656.28804061 -858.18112486 1658.58001382 -855.6875 1660.875 C-851.24749216 1664.92521292 -846.68065719 1668.75534122 -842.00390625 1672.52734375 C-838.5033321 1675.40883067 -835.0972871 1678.38729396 -831.6875 1681.375 C-825.77324455 1686.54061552 -819.7147201 1691.46166842 -813.5078125 1696.26953125 C-810.5410636 1698.56772866 -807.61674319 1700.91409754 -804.69970703 1703.27490234 C-796.61714771 1709.8088632 -788.32951568 1716.04718127 -780 1722.26171875 C-770.26039549 1729.53078028 -760.61185973 1736.92027046 -751.0625 1744.4375 C-750.50498047 1744.87610352 -749.94746094 1745.31470703 -749.37304688 1745.76660156 C-746.88074239 1747.72847802 -744.38947497 1749.69159386 -741.90283203 1751.66064453 C-720.85911542 1768.30883102 -698.69702974 1783.35734874 -675 1796 C-674.26072266 1796.40025391 -673.52144531 1796.80050781 -672.75976562 1797.21289062 C-652.65073893 1808.00512177 -631.43847373 1816.50630389 -610.44805908 1825.4005127 C-603.19773551 1828.47726332 -595.9957647 1831.64473434 -588.8125 1834.875 C-519.33577641 1865.79919392 -438.0223064 1897.89285767 -361.23828125 1900.46484375 C-359.12694812 1900.54348548 -357.01562016 1900.62226623 -354.90429688 1900.70117188 C-351.62954871 1900.81954212 -348.35475377 1900.93603527 -345.07983398 1901.04956055 C-307.07367515 1902.38346532 -307.07367515 1902.38346532 -290.3125 1906.5 C-205.42697894 1925.30775297 -105.41458162 1902.36644433 -5.4375 1877.75 C-4.7395998 1877.57601685 -4.0416996 1877.40203369 -3.32265091 1877.22277832 C6.1313071 1874.86465657 15.5710152 1872.45640829 25 1870 C26.4345755 1869.63322144 26.4345755 1869.63322144 27.89813232 1869.2590332 C30.32197217 1868.6348511 32.7378342 1867.98732305 35.15234375 1867.328125 C37.03747681 1866.82394043 37.03747681 1866.82394043 38.96069336 1866.30957031 C42.49289704 1864.78762152 43.81259872 1863.10373241 46 1860 C48.234375 1858.8125 48.234375 1858.8125 50.75 1858 C51.70261719 1857.68546875 52.65523437 1857.3709375 53.63671875 1857.046875 C54.74660156 1856.70140625 55.85648438 1856.3559375 57 1856 C58.40263436 1855.54777538 59.80496189 1855.0945983 61.20703125 1854.640625 C72.5712727 1851 72.5712727 1851 75 1851 C74.67 1851.99 74.34 1852.98 74 1854 C80.52827422 1853.07365429 86.20813675 1850.7927 92.3125 1848.375 C94.14856812 1847.64953979 94.14856812 1847.64953979 96.02172852 1846.90942383 C137.61866538 1830.31013576 178.27975841 1810.02480555 217.04736328 1787.69482422 C220.15812036 1785.90923834 223.27948189 1784.14322703 226.40234375 1782.37890625 C239.95189912 1774.69092979 253.13165814 1766.59573567 266.08642578 1757.94433594 C269.14389795 1755.90397157 272.20995047 1753.87697687 275.27734375 1751.8515625 C289.99631259 1742.11362833 304.44294623 1732.15287655 318.35253906 1721.28417969 C320.02944345 1719.97704912 321.71343704 1718.67948428 323.3984375 1717.3828125 C337.26598086 1706.66324844 350.24391996 1695.00919092 363 1683 C363.66 1683.33 364.32 1683.66 365 1684 C354.43276387 1697.07471589 342.93151274 1709.47799297 329.6796875 1719.87890625 C327.23532169 1721.81373225 324.87739756 1723.82432044 322.52709961 1725.87158203 C314.80514499 1732.56765879 306.59965387 1738.50912819 298.25683594 1744.40332031 C296.13630603 1745.9035654 294.02403761 1747.41464946 291.9140625 1748.9296875 C259.80189414 1771.90535564 226.05066135 1792.3423097 192.07421875 1812.40625 C186.70140855 1815.5798182 181.34545167 1818.78058876 176 1822 C225.1217306 1798.75091408 270.14413402 1770.07230642 313.72167969 1737.69189453 C315.8767429 1736.09153147 318.03576022 1734.49664065 320.1953125 1732.90234375 C329.08936791 1726.31128075 337.717697 1719.43924767 346.27099609 1712.41308594 C348.55819327 1710.54379799 350.87146225 1708.70837399 353.1875 1706.875 C360.51974516 1701.02389284 367.64376246 1694.91453144 374.73046875 1688.76953125 C375.34954102 1688.23424805 375.96861328 1687.69896484 376.60644531 1687.14746094 C377.79203521 1686.12121432 378.97514806 1685.09209615 380.15527344 1684.05957031 C383.61441294 1681.06628067 387.14250351 1678.46111767 391 1676 C389.40040345 1680.25209209 386.1831683 1682.81463557 382.875 1685.75 C381.6901962 1686.82027657 380.50659975 1687.89189121 379.32421875 1688.96484375 C378.75106934 1689.4841748 378.17791992 1690.00350586 377.58740234 1690.53857422 C375.55987225 1692.40519913 373.61670071 1694.34479229 371.6875 1696.3125 C367.95891806 1700.08730403 364.02464171 1703.54572949 360 1707 C358.84827706 1708.0031246 357.69730163 1709.00710776 356.546875 1710.01171875 C349.13627252 1716.47586101 341.66126464 1722.83310291 334 1729 C332.88521996 1729.90861288 331.77064824 1730.81748139 330.65625 1731.7265625 C295.83601799 1760.00202951 257.96728408 1784.86312783 219 1807 C217.90896973 1807.62100586 216.81793945 1808.24201172 215.69384766 1808.88183594 C167.84791765 1835.99613618 117.80061197 1858.55712031 66 1877 C65.32318176 1877.24214233 64.64636353 1877.48428467 63.94903564 1877.73376465 C28.95346558 1890.24836655 -6.55639303 1900.51735657 -42.72265625 1909.0625 C-43.40342224 1909.22336594 -44.08418823 1909.38423187 -44.7855835 1909.54997253 C-48.36166346 1910.3910608 -51.94118334 1911.21335507 -55.52612305 1912.01586914 C-62.8316364 1913.66531515 -69.79727945 1915.45644245 -76.6875 1918.4375 C-89.60065972 1923.5272292 -103.32885895 1925.13717627 -117 1927 C-117.65826782 1927.09110046 -118.31653564 1927.18220093 -118.99475098 1927.27606201 C-137.00619204 1929.76224956 -155.05101149 1931.42507164 -173.1875 1932.6875 C-174.49658829 1932.77877167 -174.49658829 1932.77877167 -175.8321228 1932.87188721 C-197.29314397 1934.3451421 -218.73647987 1935.13585218 -240.24609375 1935.31640625 C-242.36556829 1935.33706023 -244.48503951 1935.3580583 -246.60450745 1935.37937927 C-252.09672288 1935.43373079 -257.58896986 1935.48351108 -263.08123779 1935.53222656 C-268.72020161 1935.58308994 -274.35912144 1935.63843223 -279.99804688 1935.69335938 C-290.99866007 1935.79987224 -301.99931198 1935.9015395 -313 1936 C-287.05255091 1938.55461132 -261.46642643 1940.21156321 -235.375 1940.1875 C-234.16079376 1940.18689575 -232.94658752 1940.1862915 -231.69558716 1940.18566895 C-212.37757429 1940.15964266 -193.2479269 1939.7258563 -174 1938 C-172.55274537 1937.87503542 -171.10547936 1937.75020243 -169.65820312 1937.62548828 C-81.96547589 1929.94309963 4.75626492 1907.82542165 100 1871 C100.74042542 1870.70349548 101.48085083 1870.40699097 102.24371338 1870.10150146 C121.6281403 1862.31708875 140.74408846 1854.00016394 159.68408203 1845.18994141 C160.38459686 1844.86488617 161.08511169 1844.53983093 161.80685425 1844.20492554 C163.68938843 1843.33009698 165.56987553 1842.45086707 167.45019531 1841.57128906 C171.25730789 1839.88610498 175.08965917 1838.42673145 179 1837 C179 1837.66 179 1838.32 179 1839 C154.28566286 1860.4468166 117.85334259 1871.68278668 88 1884 C148.52326368 1866.37595093 148.52326368 1866.37595093 199.18359375 1831.578125 C202.7621329 1828.30234713 206.50955285 1826.54150988 210.875 1824.5 C221.57840195 1819.32071143 231.87536381 1813.5377557 242.18017578 1807.61279297 C244.85965317 1806.0802711 247.54999133 1804.5694439 250.24609375 1803.06640625 C283.02377344 1784.7243631 314.27862108 1763.22392269 343 1739 C344.00675781 1738.154375 345.01351563 1737.30875 346.05078125 1736.4375 C348.80987242 1734.11475739 351.55855677 1731.78002134 354.30419922 1729.44140625 C356.00234846 1727.99800384 357.70590193 1726.56118577 359.41015625 1725.125 C366.98575096 1718.71611759 374.29386111 1712.06983618 381.515625 1705.265625 C384.47005642 1702.48479456 387.47043544 1699.7615666 390.5 1697.0625 C393.85145757 1694.07052221 397.05062039 1690.98246511 400.19335938 1687.77368164 C401.95249295 1686.04664037 403.77127104 1684.44868548 405.6484375 1682.8515625 C410.32450387 1678.78537115 414.65742189 1674.41668354 419 1670 C423.90579302 1665.01049037 428.84843146 1660.17810578 434.15625 1655.61669922 C436.89290184 1653.21705562 439.45085895 1650.65831547 442 1648.0625 C442.48855469 1647.56943359 442.97710938 1647.07636719 443.48046875 1646.56835938 C444.65603525 1645.38126771 445.82838826 1644.19099502 447 1643 C447.66 1643.33 448.32 1643.66 449 1644 C448.23816406 1644.88300781 447.47632813 1645.76601562 446.69140625 1646.67578125 C445.6481185 1647.8877463 444.60517473 1649.10000752 443.5625 1650.3125 C443.01625977 1650.94752441 442.47001953 1651.58254883 441.90722656 1652.23681641 C438.62360823 1656.06706401 435.40939847 1659.94096793 432.25 1663.875 C429.07833928 1667.78518822 425.76879947 1671.39049472 422.1171875 1674.85546875 C420.26532796 1676.73124529 418.5603738 1678.65138031 416.84399414 1680.64941406 C413.17899783 1684.85022179 409.32581717 1688.8190894 405.37890625 1692.75390625 C404.67531479 1693.45845444 403.97172333 1694.16300262 403.24681091 1694.88890076 C401.76985352 1696.36653367 400.29165258 1697.84292457 398.81225586 1699.31811523 C396.56834915 1701.55666481 394.32983296 1703.80050473 392.09179688 1706.04492188 C390.64615382 1707.48990404 389.20020055 1708.93457592 387.75390625 1710.37890625 C386.76602867 1711.36982018 386.76602867 1711.36982018 385.75819397 1712.38075256 C381.88082193 1716.23895229 377.89560832 1719.91728008 373.75091553 1723.48719788 C371.34746796 1725.56379182 369.02046136 1727.71982263 366.6875 1729.875 C362.20337072 1733.96437787 357.59732762 1737.84619021 352.875 1741.65625 C350.30664766 1743.7500155 347.78005017 1745.88143274 345.26318359 1748.03613281 C338.99113381 1753.40149283 332.56043383 1758.51551659 325.97753906 1763.49511719 C323.70204048 1765.22674352 321.44086843 1766.97628338 319.1796875 1768.7265625 C308.49720345 1776.97113111 297.66310597 1784.87253507 286.44189453 1792.3671875 C283.88093281 1794.07961621 281.32886491 1795.80479136 278.77734375 1797.53125 C267.69971087 1805.00077434 256.46509001 1812.14054444 245 1819 C253.16805815 1815.06593031 260.98549028 1810.77939402 268.6875 1806 C269.78255859 1805.32283936 270.87761719 1804.64567871 272.00585938 1803.94799805 C302.79311789 1784.80093618 332.19030147 1764.00237816 360.25 1741.0546875 C362.48582898 1739.22711099 364.73274037 1737.42182205 367 1735.6328125 C376.71372451 1727.92395555 385.37687293 1719.17508932 393.4140625 1709.74609375 C395.66828439 1707.26422876 398.16256121 1705.13354625 400.71484375 1702.96484375 C403.44603146 1700.61648918 406.10052801 1698.18945024 408.75 1695.75 C409.65234375 1694.91984375 410.5546875 1694.0896875 411.484375 1693.234375 C412.01522705 1692.74364502 412.5460791 1692.25291504 413.09301758 1691.74731445 C414.50340447 1690.45501654 415.92412689 1689.1739782 417.3503418 1687.89916992 C426.75282366 1679.42624878 435.6731544 1670.47839353 444.6105957 1661.51977539 C447.32064396 1658.80433986 450.03603249 1656.09432636 452.75195312 1653.38476562 C454.49771676 1651.63834158 456.24317037 1649.89160756 457.98828125 1648.14453125 C458.78945877 1647.34537796 459.59063629 1646.54622467 460.41609192 1645.72285461 C464.60019133 1641.52143707 468.63340515 1637.2467051 472.49336243 1632.74475098 C474.87562626 1629.98598721 477.38176838 1627.34554912 479.875 1624.6875 C484.31340532 1619.91723195 488.51470097 1615.02153213 492.59375 1609.9375 C495.46603195 1606.43107788 498.4490239 1603.03225996 501.4375 1599.625 C506.7203334 1593.57058491 511.71573767 1587.34860019 516.54052734 1580.92333984 C518.2117512 1578.72094748 519.91153363 1576.54217085 521.61328125 1574.36328125 C531.74622538 1561.32929741 541.03093903 1547.8565078 550 1534 C550.56235352 1533.13568359 551.12470703 1532.27136719 551.70410156 1531.38085938 C559.9427081 1518.68693389 567.53202591 1505.70360511 574.45703125 1492.24609375 C578.85209085 1483.71440544 583.45337196 1475.54280327 588.75585938 1467.54125977 C599.37458746 1451.42566911 608.31045227 1434.21171599 617 1417 C617.73452393 1415.547146 617.73452393 1415.547146 618.48388672 1414.06494141 C656.71928248 1337.85888556 678.28491849 1253.34617852 703.60089111 1023.21185303 C703.64206111 1019.32801081 703.69261433 1015.4442893 703.7421875 1011.56054688 C703.83688828 1004.04044971 703.92189415 996.52028989 704 989 C706.60914058 991.60914058 706.51570314 993.21339047 707 996.8515625 C707.2460498 998.6912561 707.2460498 998.6912561 707.49707031 1000.56811523 C707.66610871 1001.92023647 707.83370959 1003.27253806 708 1004.625 C708.12973206 1005.66105881 708.12973206 1005.66105881 708.26208496 1006.7180481 C718.73924833 1091.15358026 708.68341351 1178.28410237 626 1448 C625.36454278 1449.37539437 624.72929976 1450.75088771 624.09423828 1452.12646484 C622.07113339 1456.50485826 620.03800539 1460.87852461 618 1465.25 C617.67812714 1465.9413504 617.35625427 1466.63270081 617.02462769 1467.34500122 C616.10328442 1469.32022087 615.17745097 1471.29326699 614.25 1473.265625 C613.71890625 1474.39774414 613.1878125 1475.52986328 612.640625 1476.69628906 C611.43721791 1479.11957847 610.19342147 1481.39001985 608.8125 1483.70605469 C606.88994133 1487.20001503 606.61824236 1489.0869842 607 1493 C607.47050781 1492.6390625 607.94101563 1492.278125 608.42578125 1491.90625 C609.35970703 1491.21015625 609.35970703 1491.21015625 610.3125 1490.5 C610.92738281 1490.0359375 611.54226563 1489.571875 612.17578125 1489.09375 C614 1488 614 1488 617 1488 C610.73499286 1509.214839 594.25943089 1528.36231742 581.38745117 1545.92773438 C574.8565968 1554.61076704 574.8565968 1554.61076704 569.625 1564.07421875 C567.19784391 1568.44426661 563.62626203 1571.41988583 560 1574.8125 C552.38325246 1582.18388226 546.72905472 1589.76980953 541.31689453 1598.83203125 C539.02585009 1602.60371732 536.57694379 1606.26911568 534.125 1609.9375 C533.62758301 1610.68233643 533.13016602 1611.42717285 532.61767578 1612.19458008 C523.52445862 1625.72924816 513.85768384 1638.70617285 503.44433594 1651.25146484 C501.39626483 1653.73089102 499.39006309 1656.24372046 497.375 1658.75 C493.32568787 1663.69668717 489.04717176 1668.39950306 484.69921875 1673.08203125 C482.2052426 1675.77812414 479.75374381 1678.50622684 477.3125 1681.25 C470.37325898 1688.96712746 463.05574676 1696.9628355 454.375 1702.75 C451.90651678 1705.08856305 450.90298647 1706.92927663 449.375 1709.9375 C441.80419302 1724.44339734 428.31800241 1736.81479374 415.95703125 1747.328125 C413.59848002 1749.34301507 411.30065215 1751.4192888 409 1753.5 C406.01937279 1756.18983431 403.02754767 1758.86310364 400 1761.5 C395.28298716 1765.61081039 390.64361111 1769.80667845 386 1774 C383.45232692 1776.30062599 380.90350164 1778.59953326 378.34375 1780.88671875 C376.93002753 1782.16142517 375.52961843 1783.45144672 374.15625 1784.76953125 C369.50113316 1789.128599 364.31315416 1792.38077537 358.89111328 1795.68432617 C349.60586389 1801.38872176 340.75526713 1807.73010079 331.84570312 1813.99804688 C327.5692728 1817.00651708 323.28421935 1820.00263782 319 1823 C317.3684508 1824.14187168 315.73694081 1825.28379937 314.10546875 1826.42578125 C313.28095215 1827.00279785 312.45643555 1827.57981445 311.60693359 1828.17431641 C309.79409698 1829.44387927 307.98197459 1830.71446235 306.17041016 1831.98583984 C294.63923638 1840.07590397 283.09340615 1848.10713672 271.17822266 1855.62402344 C269.66723415 1856.57851024 268.15929791 1857.53783938 266.65380859 1858.50097656 C244.29562036 1872.79562884 221.12671131 1885.7283602 196.12109375 1894.78515625 C195.33154297 1895.07592041 194.54199219 1895.36668457 193.72851562 1895.66625977 C192.28770099 1896.19059715 190.84035896 1896.69765028 189.38476562 1897.17944336 C184.70801282 1898.86745174 181.20427335 1901.2641898 177.28125 1904.32421875 C171.22915806 1909.00470617 165.0350264 1912.21971402 158.0625 1915.3125 C156.84273375 1915.8644448 155.62325835 1916.41703275 154.40405273 1916.97021484 C74.00021115 1953.22842817 -11.7083585 1978.01765033 -444 1985 C-444.72539978 1984.85647095 -445.45079956 1984.71294189 -446.19818115 1984.56506348 C-520.65378755 1969.81854748 -592.881839 1947.47966621 -662 1916 C-663.10859375 1915.49645996 -664.2171875 1914.99291992 -665.359375 1914.47412109 C-736.84374921 1881.90745902 -804.05993051 1841.31482032 -866 1793 C-866.80800049 1792.37327393 -866.80800049 1792.37327393 -867.63232422 1791.73388672 C-885.87733494 1777.58111551 -903.67820846 1762.84440245 -920.57470703 1747.09936523 C-923.37866863 1744.48684052 -926.2107257 1741.92616021 -929.125 1739.4375 C-932.9217084 1736.16143727 -936.4211798 1732.60665054 -939.94067383 1729.04003906 C-942.48224238 1726.47698011 -945.05693932 1724.01822049 -947.8125 1721.6875 C-956.28673114 1714.4388808 -964.22689994 1706.29486691 -971.4296875 1697.7890625 C-973.20465381 1695.7668372 -975.08299023 1693.88785373 -977 1692 C-980.19261312 1688.8501997 -983.17161279 1685.58780511 -986.09375 1682.1875 C-988.30945648 1679.64488601 -990.59098592 1677.16889802 -992.875 1674.6875 C-997.01925965 1670.1482504 -1000.92578398 1665.46541704 -1004.78515625 1660.68359375 C-1006.95632827 1658.05291443 -1009.20241357 1655.52057576 -1011.5 1653 C-1015.34191939 1648.77986056 -1018.96115221 1644.41972816 -1022.55078125 1639.984375 C-1025.3181144 1636.61237735 -1028.15172201 1633.30357227 -1031 1630 C-1039.43126716 1620.20321687 -1047.51415941 1610.15045071 -1055.46386719 1599.96142578 C-1057.07496152 1597.90428467 -1058.69707394 1595.85616244 -1060.3203125 1593.80859375 C-1078.27752145 1571.06820047 -1094.84581511 1546.9465012 -1108.49609375 1521.3515625 C-1112.93820119 1513.05368156 -1117.39548385 1505.99232463 -1123.625 1498.90625 C-1130.49984205 1490.49361433 -1134.97019293 1480.17977963 -1139.765625 1470.4921875 C-1145.82699572 1458.27627851 -1151.98832249 1446.170402 -1159.13609314 1434.54776001 C-1165.38541474 1424.3856354 -1170.97204672 1414.75185408 -1174.27075195 1403.20922852 C-1176.74010956 1394.93676222 -1180.56361956 1387.45675171 -1184.5 1379.8125 C-1191.93578525 1365.32801998 -1198.69188676 1351.06797857 -1202 1335 C-1202.33 1336.32 -1202.66 1337.64 -1203 1339 C-1206 1338 -1206 1338 -1206.9052124 1336.24880981 C-1207.2803598 1335.09721878 -1207.2803598 1335.09721878 -1207.66308594 1333.92236328 C-1207.95537582 1333.04393768 -1208.24766571 1332.16551208 -1208.54881287 1331.26046753 C-1208.85754837 1330.29021637 -1209.16628387 1329.31996521 -1209.484375 1328.3203125 C-1209.81667618 1327.30679718 -1210.14897736 1326.29328186 -1210.49134827 1325.24905396 C-1211.59116968 1321.87861451 -1212.67158609 1318.50234549 -1213.75 1315.125 C-1214.5125554 1312.76007227 -1215.27517015 1310.39516368 -1216.0378418 1308.03027344 C-1263.07774955 1161.49704372 -1263.07774955 1161.49704372 -1261.921875 1100.63671875 C-1261.90939728 1099.90816177 -1261.89691956 1099.1796048 -1261.88406372 1098.42897034 C-1261.82996603 1095.43420634 -1261.77427501 1092.44027138 -1261.67773438 1089.4465332 C-1261.36915674 1079.36375896 -1262.44858713 1071.16575295 -1265.78417969 1061.64135742 C-1267.42154092 1056.73749341 -1268.17210414 1051.93265734 -1268.75 1046.8125 C-1268.91822266 1045.51022461 -1268.91822266 1045.51022461 -1269.08984375 1044.18164062 C-1269.42966111 1041.45710495 -1269.72375361 1038.73169032 -1270 1036 C-1270.14574463 1034.59778198 -1270.14574463 1034.59778198 -1270.29443359 1033.16723633 C-1271.15230679 1023.7313904 -1271.15208433 1014.31013178 -1271.13037109 1004.84399414 C-1271.12501655 1002.07107053 -1271.13034366 999.29830931 -1271.13671875 996.52539062 C-1271.14827018 969.29654036 -1271.14827018 969.29654036 -1269 965 C-1268.34 965 -1267.68 965 -1267 965 C-1267.0309375 963.06253906 -1267.0309375 963.06253906 -1267.0625 961.0859375 C-1267.0625 956.20601301 -1266.57371675 951.46518901 -1266 946.625 C-1264.90556673 936.72441497 -1264.79740662 926.94958596 -1265 917 C-1266.62114958 920.94388909 -1267.87071041 924.88615934 -1269 929 C-1269.66 929 -1270.32 929 -1271 929 C-1271.26580106 920.01075566 -1270.54791856 911.59823719 -1269 902.75 C-1267.86603289 896.17605552 -1266.85725216 889.90484335 -1267.01074219 883.22802734 C-1266.98916673 878.75308122 -1266.27908945 874.35668537 -1265.625 869.9375 C-1265.46362549 868.83003418 -1265.30225098 867.72256836 -1265.13598633 866.58154297 C-1262.81740339 851.65045707 -1259.50417298 836.89411091 -1256.26611328 822.14038086 C-1256.04442978 821.11322464 -1255.82274628 820.08606842 -1255.59434509 819.02778625 C-1255.17427589 817.0817011 -1254.74625903 815.13730902 -1254.30909729 813.19499207 C-1254.12161423 812.32063004 -1253.93413116 811.44626801 -1253.7409668 810.54541016 C-1253.57316208 809.7852359 -1253.40535736 809.02506165 -1253.23246765 808.24185181 C-1252.96159379 805.62962142 -1253.46210024 803.55960022 -1254 801 C-1253.65690905 798.07493671 -1253.23298329 795.25305201 -1252.69921875 792.36328125 C-1252.54775894 791.50847672 -1252.39629913 790.65367218 -1252.24024963 789.77296448 C-1251.73470063 786.95047286 -1251.21281377 784.13137652 -1250.6875 781.3125 C-1250.50771606 780.33694153 -1250.32793213 779.36138306 -1250.1427002 778.35626221 C-1241.24366929 730.28527262 -1228.24617106 683.09744647 -1212 637 C-1211.74496704 636.27615112 -1211.48993408 635.55230225 -1211.22717285 634.80651855 C-1198.90777485 599.95413838 -1184.11599505 566.25124642 -1168 533 C-1167.51469818 531.99845886 -1167.51469818 531.99845886 -1167.01959229 530.97668457 C-1159.05791285 514.57445769 -1150.70263678 498.46157572 -1141.54980469 482.68505859 C-1139.99657242 479.99406167 -1138.46754597 477.29066827 -1136.9453125 474.58203125 C-1126.71799111 456.41191576 -1115.41700237 439.04167781 -1103.875 421.6875 C-1103.36384644 420.91800018 -1102.85269287 420.14850037 -1102.3260498 419.35568237 C-1095.73034199 409.43607313 -1088.99995688 399.63882347 -1082 390 C-1081.04456299 388.6843103 -1081.04456299 388.6843103 -1080.06982422 387.34204102 C-1078.38675718 385.03536467 -1076.6959983 382.73468144 -1075 380.4375 C-1074.40533936 379.63159424 -1073.81067871 378.82568848 -1073.19799805 377.99536133 C-1068.21711296 371.26220369 -1063.15281673 364.60256421 -1058 358 C-1057.5555957 357.42942871 -1057.11119141 356.85885742 -1056.65332031 356.27099609 C-1048.34550031 345.61152236 -1039.84351334 335.13167106 -1031.0859375 324.83789062 C-1028.17412087 321.40959255 -1025.32236523 317.94025685 -1022.5 314.4375 C-1018.37309794 309.36392507 -1013.99897442 304.56258858 -1009.5546875 299.76953125 C-1007.49886278 297.54081607 -1005.48383043 295.29232081 -1003.5 293 C-998.78585234 287.55971224 -993.87817953 282.29278068 -989 277 C-988.31640625 278.671875 -988.31640625 278.671875 -988 281 C-989.21484375 283.578125 -989.21484375 283.578125 -990.9375 286.25 C-991.50339844 287.14203125 -992.06929687 288.0340625 -992.65234375 288.953125 C-993.09707031 289.62859375 -993.54179688 290.3040625 -994 291 C-993.67 291 -993.34 291 -993 291 C-991.76613549 289.66905478 -990.56490087 288.30789145 -989.375 286.9375 C-981.14294193 277.69125238 -972.42120678 268.72049616 -962.953125 260.734375 C-960.3592551 258.43101853 -957.93536153 255.96792645 -955.5 253.5 C-951.81851628 249.77403273 -948.06704863 246.20143763 -944.08203125 242.80078125 C-941.56846422 240.62675798 -939.13223771 238.37609512 -936.6875 236.125 C-932.12551313 231.96053066 -927.4221757 228.02781891 -922.6171875 224.1484375 C-920.18764512 222.15403704 -917.83566555 220.10293019 -915.5 218 C-910.47423073 213.48923889 -905.25538656 209.2393003 -900 205 C-898.88928476 204.09640107 -897.77860923 203.19275332 -896.66796875 202.2890625 C-886.32385486 193.90819009 -875.68840958 185.93446637 -865 178 C-864.17886719 177.38801758 -863.35773438 176.77603516 -862.51171875 176.14550781 C-851.83288643 168.18747847 -841.04793949 160.43721 -830 153 C-829.19836426 152.45875488 -828.39672852 151.91750977 -827.57080078 151.35986328 C-795.0984481 129.46249021 -761.5368962 109.46669035 -727 91 C-726.00355469 90.46681152 -725.00710938 89.93362305 -723.98046875 89.38427734 C-649.70165956 49.82730773 -569.93115795 19.37123261 -297 -28 C-295.27330078 -28.08459473 -295.27330078 -28.08459473 -293.51171875 -28.17089844 C-199.94703822 -32.56812619 -105.39325939 -24.40716998 0 0 Z M-283 26 C-283 26.33 -283 26.66 -283 27 C-259.32759186 27.68336472 -235.68296819 28.16998597 -212 28 C-212 27.67 -212 27.34 -212 27 C-235.64332666 25.56240359 -259.32481799 25.90448816 -283 26 Z M-306 27 C-306 27.33 -306 27.66 -306 28 C-300.72 28 -295.44 28 -290 28 C-290 27.67 -290 27.34 -290 27 C-295.28 27 -300.56 27 -306 27 Z M-338 32 C-340.45703125 32.73046875 -340.45703125 32.73046875 -342.8125 33.1875 C-343.60269531 33.34605469 -344.39289062 33.50460938 -345.20703125 33.66796875 C-346.09455078 33.83232422 -346.09455078 33.83232422 -347 34 C-347 34.33 -347 34.66 -347 35 C-338.54555245 35.50558158 -331.64889043 34.57985051 -323.58984375 32.0234375 C-317.81470805 30.37698967 -311.96142373 29.6885535 -306 29 C-306 28.67 -306 28.34 -306 28 C-322.68326924 27.05253895 -322.68326924 27.05253895 -338 32 Z M-301 32 C-301 32.33 -301 32.66 -301 33 C-298.36 33 -295.72 33 -293 33 C-293 32.67 -293 32.34 -293 32 C-295.64 32 -298.28 32 -301 32 Z M25 36 C27.98756368 37.99170912 30.55424386 39.02907979 33.9375 40.1875 C34.97777344 40.55230469 36.01804687 40.91710937 37.08984375 41.29296875 C39.95456052 41.98896034 41.28981357 42.02529944 44 41 C41.58570231 40.15919981 39.16896007 39.32718598 36.75 38.5 C36.06808594 38.26152344 35.38617187 38.02304688 34.68359375 37.77734375 C31.23586997 36.60578713 28.68297096 36 25 36 Z M-291 50 C-280.53560654 56.97626231 -265.68771964 53.3759435 -254 52 C-254.495 51.01 -254.495 51.01 -255 50 C-266.88 50 -278.76 50 -291 50 Z M-225 50 C-223.88145414 53.72614153 -223.88145414 53.72614153 -221 56 C-219.27393547 56.09061856 -217.54435493 56.11754501 -215.81591797 56.11352539 C-214.19446365 56.11341209 -214.19446365 56.11341209 -212.54025269 56.11329651 C-211.36939117 56.10813522 -210.19852966 56.10297394 -208.9921875 56.09765625 C-207.79643097 56.0962413 -206.60067444 56.09482635 -205.36868286 56.09336853 C-201.53743013 56.08775663 -197.70623516 56.07520208 -193.875 56.0625 C-191.28255293 56.05748653 -188.69010494 56.05292336 -186.09765625 56.04882812 C-179.73175102 56.03778333 -173.36587963 56.02103359 -167 56 C-167 55.67 -167 55.34 -167 55 C-173.65205074 54.28050923 -180.30495525 53.56934629 -186.95849609 52.86376953 C-189.2184632 52.62314133 -191.47823361 52.3806579 -193.73779297 52.13623047 C-196.99916537 51.78376631 -200.26120377 51.43813978 -203.5234375 51.09375 C-205.02093033 50.92969666 -205.02093033 50.92969666 -206.54867554 50.7623291 C-212.72435262 50.1185234 -218.79187065 49.86619267 -225 50 Z M-165 56 C-165 56.33 -165 56.66 -165 57 C-162.69 57 -160.38 57 -158 57 C-158 56.67 -158 56.34 -158 56 C-160.31 56 -162.62 56 -165 56 Z M-154 57 C-154 57.33 -154 57.66 -154 58 C-152.35 58 -150.7 58 -149 58 C-149 57.67 -149 57.34 -149 57 C-150.65 57 -152.3 57 -154 57 Z M-114 57 C-114 57.33 -114 57.66 -114 58 C-113.195625 58.12375 -112.39125 58.2475 -111.5625 58.375 C-110.2940625 58.684375 -110.2940625 58.684375 -109 59 C-108.67 59.66 -108.34 60.32 -108 61 C-109.32 61.33 -110.64 61.66 -112 62 C-101.30759925 62.87157852 -90.72407184 63.11813543 -80 63 C-80 62.67 -80 62.34 -80 62 C-84.16423441 61.15419612 -88.33172142 60.32562263 -92.5 59.5 C-93.67304687 59.26152344 -94.84609375 59.02304688 -96.0546875 58.77734375 C-102.14837115 57.57914753 -107.78862653 56.69250626 -114 57 Z M-144 58 C-140 59 -140 59 -140 59 Z M-134 59 C-130 60 -130 60 -130 60 Z M-124 60 C-124 60.33 -124 60.66 -124 61 C-122.35 61 -120.7 61 -119 61 C-119 60.67 -119 60.34 -119 60 C-120.65 60 -122.3 60 -124 60 Z M0 66 C0 67.32 0 68.64 0 70 C1.4117783 70.53394179 2.82970244 71.05165104 4.25 71.5625 C5.03890625 71.85253906 5.8278125 72.14257812 6.640625 72.44140625 C9.19103452 73.04522837 10.55322229 72.8473932 13 72 C12.67 70.35 12.34 68.7 12 67 C10.68 66.67 9.36 66.34 8 66 C8 66.66 8 67.32 8 68 C5.36 67.34 2.72 66.68 0 66 Z M-620 89 C-619.01 89.495 -619.01 89.495 -618 90 C-617.67 90.99 -617.34 91.98 -617 93 C-614.03 91.68 -611.06 90.36 -608 89 C-609.32 88.67 -610.64 88.34 -612 88 C-612 87.34 -612 86.68 -612 86 C-615.08009879 86 -617.31135136 87.5972268 -620 89 Z M58 100 C58 100.99 58 101.98 58 103 C61.31127029 104.27405325 64.62423729 105.54363816 67.9375 106.8125 C68.86369141 107.16892578 69.78988281 107.52535156 70.74414062 107.89257812 C76.45223464 110.07567373 82.18299512 112.12572165 88 114 C87.67 113.34 87.34 112.68 87 112 C86.34 112 85.68 112 85 112 C84.9386084 111.38415039 84.8772168 110.76830078 84.81396484 110.13378906 C84.18674719 107.79610263 84.18674719 107.79610263 81.82275391 106.81152344 C80.88351074 106.49731445 79.94426758 106.18310547 78.9765625 105.859375 C77.955625 105.51132813 76.9346875 105.16328125 75.8828125 104.8046875 C74.80773438 104.45664063 73.73265625 104.10859375 72.625 103.75 C71.55765625 103.38648438 70.4903125 103.02296875 69.390625 102.6484375 C63.81222879 100.67301235 63.81222879 100.67301235 58 100 Z M144 137 C144 137.99 144 138.98 144 140 C149.47717768 141.82985697 149.47717768 141.82985697 155 141 C153.5437455 140.32880451 152.08492133 139.66318193 150.625 139 C149.81289062 138.62875 149.00078125 138.2575 148.1640625 137.875 C146.08001567 136.87504987 146.08001567 136.87504987 144 137 Z M265 183 C266.40145821 186.31078224 267.95560997 188.03717357 270.80859375 190.19921875 C271.55560547 190.76833984 272.30261719 191.33746094 273.07226562 191.92382812 C273.85279297 192.50583984 274.63332031 193.08785156 275.4375 193.6875 C276.21416016 194.28111328 276.99082031 194.87472656 277.79101562 195.48632812 C282.09289469 198.79148724 282.09289469 198.79148724 287 201 C283.75905747 193.14694693 274.49253803 186.65444869 267 183 C266.34 183 265.68 183 265 183 Z M335 235 C339.27293882 240.23435005 343.81580806 244.67106815 349 249 C349.66 248.67 350.32 248.34 351 248 C344.31212913 241.15388077 344.31212913 241.15388077 337 235 C336.34 235 335.68 235 335 235 Z M404 302 C405.37007552 305.04335417 406.94576951 307.23501286 409.23828125 309.65234375 C409.88740479 310.34013916 410.53652832 311.02793457 411.20532227 311.73657227 C411.90069092 312.46287842 412.59605957 313.18918457 413.3125 313.9375 C414.02656006 314.69023193 414.74062012 315.44296387 415.47631836 316.21850586 C420.46743192 321.45825935 425.55572079 326.5918246 430.69873047 331.68188477 C433.95472895 334.91595904 437.03777772 338.22395602 440.00390625 341.72265625 C442.28133755 344.32097807 444.64327427 346.82790535 447.0144043 349.34057617 C452.483416 355.13682437 457.76735175 360.98253107 462.7421875 367.21484375 C464.8554818 369.82172755 467.02939254 372.35603574 469.234375 374.88476562 C476.01257818 382.66747057 482.288451 390.77491009 488.49658203 399.01611328 C489.857769 400.81231421 491.23356558 402.59520707 492.62109375 404.37109375 C512.61744638 429.99841928 529.98594625 457.57990255 546.15576172 485.74267578 C549.56151289 491.64966695 553.13637663 497.38113541 557 503 C557.33 501.68 557.66 500.36 558 499 C559.32 499.33 560.64 499.66 562 500 C559.70593304 493.97850288 556.60626905 488.41839613 553.5625 482.75 C552.97662109 481.63625 552.39074219 480.5225 551.78710938 479.375 C551.21927734 478.31796875 550.65144531 477.2609375 550.06640625 476.171875 C549.55021729 475.2034668 549.03402832 474.23505859 548.50219727 473.23730469 C547.13229607 470.70446588 547.13229607 470.70446588 544 470 C542.62475586 468.36450195 542.62475586 468.36450195 541.21484375 466.23828125 C540.68979248 465.45662598 540.16474121 464.6749707 539.6237793 463.86962891 C539.06730713 463.02577637 538.51083496 462.18192383 537.9375 461.3125 C536.75619817 459.55532374 535.5738999 457.79881696 534.390625 456.04296875 C533.80990234 455.17720215 533.22917969 454.31143555 532.63085938 453.41943359 C524.52288694 441.39098945 515.67659884 429.9099047 506.84765625 418.40722656 C505.23976717 416.31238165 503.63476523 414.21538048 502.03125 412.1171875 C497.10340111 405.67712285 492.10020063 399.30441467 487 393 C486.52691406 392.41347656 486.05382813 391.82695313 485.56640625 391.22265625 C478.6069489 382.5970944 471.57869609 374.03971932 464.37695312 365.61523438 C462.95878654 363.95165457 461.54924683 362.28104124 460.140625 360.609375 C454.27060679 353.66924037 448.2327109 346.92608655 441.9831543 340.32470703 C439.2116009 337.39367204 436.50471038 334.43650161 433.88671875 331.3671875 C429.13411524 325.8988185 423.97563565 320.82612302 418.84570312 315.71533203 C417.10427568 313.97934037 415.36835324 312.23796858 413.6328125 310.49609375 C412.52896698 309.39290774 411.42481199 308.29003127 410.3203125 307.1875 C409.80058868 306.66575195 409.28086487 306.14400391 408.74539185 305.60644531 C406.71793134 303.10826742 406.71793134 303.10826742 404 302 Z M-1027 326 C-1034.09008611 332.67972743 -1040.21120884 340.17780435 -1046 348 C-1045.67 348.66 -1045.34 349.32 -1045 350 C-1044.29875 349.16597656 -1043.5975 348.33195312 -1042.875 347.47265625 C-1037.33810127 340.90058543 -1031.7558958 334.38261225 -1026 328 C-1026.33 327.34 -1026.66 326.68 -1027 326 Z M-962 341 C-963.32 342.32 -964.64 343.64 -966 345 C-965.67 345.66 -965.34 346.32 -965 347 C-963.68 345.68 -962.36 344.36 -961 343 C-961.33 342.34 -961.66 341.68 -962 341 Z M-968 348 C-969.65 349.65 -971.3 351.3 -973 353 C-972.67 353.66 -972.34 354.32 -972 355 C-970.35 353.35 -968.7 351.7 -967 350 C-967.33 349.34 -967.66 348.68 -968 348 Z M-974 355 C-980.3297799 361.68483525 -986.32297251 368.50727415 -991.94921875 375.79663086 C-994.81609344 379.50864478 -997.76650027 383.11890228 -1000.8125 386.6875 C-1006.99056232 394.04838754 -1012.60459933 401.81500023 -1018.24609375 409.59033203 C-1019.88219887 411.83815463 -1021.5322098 414.07488076 -1023.1875 416.30859375 C-1036.7950858 434.7669137 -1049.17204623 454.11534006 -1060.76025391 473.89648438 C-1061.93176147 475.88421758 -1063.12333817 477.85803594 -1064.32421875 479.828125 C-1064.98035156 480.91609375 -1065.63648438 482.0040625 -1066.3125 483.125 C-1066.86550781 484.03507813 -1067.41851563 484.94515625 -1067.98828125 485.8828125 C-1068.32214844 486.58148437 -1068.65601563 487.28015625 -1069 488 C-1068.67 488.66 -1068.34 489.32 -1068 490 C-1062.83010592 482.9922752 -1057.85479257 475.89526478 -1053.0625 468.625 C-1051.67159659 466.5279665 -1050.27959094 464.43166383 -1048.88671875 462.3359375 C-1048.51154114 461.77140869 -1048.13636353 461.20687988 -1047.74981689 460.62524414 C-1011.96644821 406.83876522 -1011.96644821 406.83876522 -993 382 C-992.11587265 380.8359472 -991.23175773 379.67188495 -990.34765625 378.5078125 C-985.59476851 372.27405738 -980.7201944 366.19275264 -975.6171875 360.2421875 C-973.70751273 358.0552314 -973.70751273 358.0552314 -974 355 Z M542 464 C543 466 543 466 543 466 Z M-1070 490 C-1069 492 -1069 492 -1069 492 Z M654 578 C655 580 655 580 655 580 Z M655 580 C656 582 656 582 656 582 Z M656 582 C657 585 657 585 657 585 Z M657 585 C658 587 658 587 658 587 Z M713 730 C714 732 714 732 714 732 Z M-1249 778 C-1248 782 -1248 782 -1248 782 Z M-1250 784 C-1249 788 -1249 788 -1249 788 Z M-1251 791 C-1250 794 -1250 794 -1250 794 Z M-1252 797 C-1251 800 -1251 800 -1251 800 Z M-1269 967 C-1269 968.65 -1269 970.3 -1269 972 C-1268.67 972 -1268.34 972 -1268 972 C-1268 970.35 -1268 968.7 -1268 967 C-1268.33 967 -1268.66 967 -1269 967 Z M-1254 1146 C-1253 1150 -1253 1150 -1253 1150 Z M-1253 1151 C-1252.85805236 1153.06277107 -1252.71127784 1155.12521031 -1252.5625 1157.1875 C-1252.48128906 1158.33605469 -1252.40007812 1159.48460937 -1252.31640625 1160.66796875 C-1252.04596188 1163.51598171 -1251.62478253 1166.21210482 -1251 1169 C-1250.67 1169 -1250.34 1169 -1250 1169 C-1250.14194764 1166.93722893 -1250.28872216 1164.87478969 -1250.4375 1162.8125 C-1250.51871094 1161.66394531 -1250.59992188 1160.51539063 -1250.68359375 1159.33203125 C-1250.95403812 1156.48401829 -1251.37521747 1153.78789518 -1252 1151 C-1252.33 1151 -1252.66 1151 -1253 1151 Z M-1250 1169 C-1249 1173 -1249 1173 -1249 1173 Z M242 1820 C241.01 1820.99 240.02 1821.98 239 1823 C240.65 1822.34 242.3 1821.68 244 1821 C243.34 1820.67 242.68 1820.34 242 1820 Z M235 1824 C234.67 1824.66 234.34 1825.32 234 1826 C234.99 1825.67 235.98 1825.34 237 1825 C236.34 1824.67 235.68 1824.34 235 1824 Z M137.28125 1874.58203125 C136.52924316 1874.93096436 135.77723633 1875.27989746 135.00244141 1875.6394043 C134.17663574 1876.02652588 133.35083008 1876.41364746 132.5 1876.8125 C51.43992446 1913.91392564 -36.21546402 1937.52938626 -143 1952 C-143 1952.33 -143 1952.66 -143 1953 C-133.44334828 1953.3044597 -124.04828809 1952.38893961 -114.5625 1951.375 C-113.73897034 1951.28796814 -112.91544067 1951.20093628 -112.06695557 1951.11126709 C-32.03276047 1942.55366865 44.91352109 1918.62123915 127.3125 1881.8125 C128.04148499 1881.48413147 128.77046997 1881.15576294 129.52154541 1880.81744385 C131.57543571 1879.8901423 133.6261398 1878.95618047 135.67578125 1878.01953125 C136.85052002 1877.48432861 138.02525879 1876.94912598 139.2355957 1876.39770508 C142.05562612 1875.15235919 142.05562612 1875.15235919 144 1873 C140.99860491 1873 139.90942377 1873.34120243 137.28125 1874.58203125 Z M-152 1953 C-148 1954 -148 1954 -148 1954 Z " fill="#F5F9FF" transform="translate(1271,138)"/>
<path d="M0 0 C441.06370064 0 441.06370064 0 472.5625 3.75 C473.61650497 3.87305511 473.61650497 3.87305511 474.69180298 3.99859619 C490.61271605 5.87465333 506.32437459 8.66024237 522 12 C523.05123047 12.22381348 524.10246094 12.44762695 525.18554688 12.67822266 C582.69273535 25.26849822 638.19836245 52.10827038 681.31640625 92.5 C683.60958458 94.63629423 685.93663261 96.70702766 688.3125 98.75 C694.75058829 104.35007267 700.51095007 110.47546995 706 117 C706.46180664 117.5480127 706.92361328 118.09602539 707.39941406 118.66064453 C765.67972947 188.15154493 787.50026209 279.39440658 779.74609375 368.78515625 C771.76395586 450.3865631 737.52145131 528.6508511 673.4375 581.8125 C671.6361079 583.22263952 669.82262093 584.61740827 668 586 C666.79021473 586.93860897 665.58059072 587.87742581 664.37109375 588.81640625 C650.60582512 599.40822933 636.13940382 608.6775014 620.88378906 616.96777344 C619.12766332 617.93004659 617.38733098 618.92098813 615.6484375 619.9140625 C588.77071103 634.9285166 545.49008001 655.8230204 514 655 C519.29610872 664.61082989 525.02907993 673.91170284 530.87084961 683.19848633 C535.86459516 691.15017404 540.76499807 699.15377285 545.625 707.1875 C551.12061961 716.26927826 556.65596806 725.32407705 562.25830078 734.34057617 C566.20887734 740.70498335 570.11210661 747.09713392 574 753.5 C578.46605714 760.85473567 582.9614686 768.18976208 587.5 775.5 C592.03853203 782.81023894 596.53384603 790.14532244 601 797.5 C605.9505162 805.65070538 610.94069212 813.77526444 615.96704102 821.87939453 C626.02500583 838.09742777 636.0144902 854.35689299 645.92163086 870.66748047 C650.27760811 877.8317454 654.6837554 884.9637872 659.10620117 892.0871582 C663.7048456 899.50277695 668.24055739 906.95575235 672.76953125 914.4140625 C676.64840558 920.79571383 680.56094387 927.15534025 684.5 933.5 C689.03853203 940.81023894 693.53384603 948.14532244 698 955.5 C702.9505162 963.65070538 707.94069212 971.77526444 712.96704102 979.87939453 C723.02500583 996.09742777 733.0144902 1012.35689299 742.92163086 1028.66748047 C747.27760811 1035.8317454 751.6837554 1042.9637872 756.10620117 1050.0871582 C760.7048456 1057.50277695 765.24055739 1064.95575235 769.76953125 1072.4140625 C773.64840727 1078.79571662 777.56119556 1085.155182 781.5 1091.5 C786.29755454 1099.23372625 791.06856558 1106.98325371 795.8125 1114.75 C796.42996094 1115.75740234 797.04742188 1116.76480469 797.68359375 1117.80273438 C798.24820313 1118.72892578 798.8128125 1119.65511719 799.39453125 1120.609375 C799.89831299 1121.43405273 800.40209473 1122.25873047 800.92114258 1123.10839844 C802 1125 802 1125 802 1126 C783.03426514 1126.75068524 764.07157438 1127.3132562 745.09401989 1127.6579895 C736.27952739 1127.82239702 727.47430457 1128.04596657 718.66577148 1128.4140625 C710.97863804 1128.73514091 703.29820996 1128.93990321 695.60455877 1129.01083183 C691.533868 1129.05227835 687.48233222 1129.14779829 683.41786766 1129.38336182 C659.45158533 1130.71842758 659.45158533 1130.71842758 652.37345934 1124.59220505 C645.33971867 1117.0257741 641.09552608 1107.42165295 636.92502785 1098.0934906 C633.99278301 1091.65640556 630.15204822 1085.77967787 626.375 1079.8125 C620.25183578 1069.84938622 614.32515706 1059.77521349 608.43493652 1049.67340088 C602.91555853 1040.21237835 597.28568372 1030.82537381 591.58032227 1021.47549438 C584.85996064 1010.45932687 578.25514956 999.37683733 571.68212891 988.2722168 C570.9339423 987.00828715 570.18573291 985.74437099 569.4375 984.48046875 C569.0701474 983.85986572 568.7027948 983.2392627 568.3243103 982.59985352 C565.7316225 978.22391284 563.12028713 973.85946157 560.5 969.5 C557.50441368 964.51614028 554.52445541 959.5234543 551.5625 954.51953125 C551.19419067 953.89737228 550.82588135 953.27521332 550.44641113 952.63420105 C549.68911516 951.35485559 548.9318318 950.07550267 548.17456055 948.79614258 C541.67865317 937.82560684 535.13572487 926.88654011 528.5 916 C521.4746739 904.47428188 514.55712633 892.88716621 507.68164062 881.27148438 C506.93361502 880.00779991 506.18556838 878.7441279 505.4375 877.48046875 C504.88648621 876.54958687 504.88648621 876.54958687 504.32434082 875.59989929 C501.73163782 871.22394635 499.12029657 866.85947727 496.5 862.5 C493.50441368 857.51614028 490.52445541 852.5234543 487.5625 847.51953125 C487.19419067 846.89737228 486.82588135 846.27521332 486.44641113 845.63420105 C485.68911516 844.35485559 484.9318318 843.07550267 484.17456055 841.79614258 C477.67865317 830.82560684 471.13572487 819.88654011 464.5 809 C457.4746739 797.47428188 450.55712633 785.88716621 443.68164062 774.27148438 C442.93361502 773.00779991 442.18556838 771.7441279 441.4375 770.48046875 C440.88648621 769.54958687 440.88648621 769.54958687 440.32434082 768.59989929 C437.73163782 764.22394635 435.12029657 759.85947727 432.5 755.5 C429.50441369 750.51614031 426.5244523 745.52345612 423.5625 740.51953125 C423.19387344 739.89682846 422.82524689 739.27412567 422.44544983 738.6325531 C421.68783541 737.35265715 420.93023158 736.07275493 420.17263794 734.79284668 C413.52992727 723.5746611 406.83984726 712.38738445 400.0625 701.25 C399.36205332 700.09823031 398.66161378 698.94645627 397.96118164 697.79467773 C395.34247869 693.49013596 392.7229578 689.18609683 390.10058594 684.88378906 C388.37528537 682.05009124 386.65563391 679.21304696 384.9375 676.375 C384.43033447 675.54516602 383.92316895 674.71533203 383.40063477 673.86035156 C382.94744873 673.10979492 382.4942627 672.35923828 382.02734375 671.5859375 C381.63281006 670.9367334 381.23827637 670.2875293 380.83178711 669.61865234 C380 668 380 668 380 666 C297.5 666 215 666 130 666 C130 817.8 130 969.6 130 1126 C87.1 1126 44.2 1126 0 1126 C0 754.42 0 382.84 0 0 Z M130 113 C130 258.2 130 403.4 130 553 C176.9425 553.04125 223.885 553.0825 272.25 553.125 C287.03071289 553.14320801 301.81142578 553.16141602 317.04003906 553.18017578 C330.37716628 553.18686778 330.37716628 553.18686778 343.71429443 553.19088745 C349.61974715 553.19273845 355.52516121 553.20001432 361.43060303 553.21115112 C368.26685152 553.22402387 375.10306347 553.22963932 381.93932413 553.2268899 C385.4246354 553.2257024 388.90986539 553.22737213 392.39516115 553.23843026 C415.26867034 553.30023003 438.14951913 552.50193077 460.8125 549.1875 C462.00278809 549.01718262 463.19307617 548.84686523 464.41943359 548.67138672 C517.74347996 540.75648819 572.24336812 518.83505075 606 475 C607.19882813 473.54207031 607.19882813 473.54207031 608.421875 472.0546875 C647.56446932 424.01778415 653.50201554 356.29617835 648 297 C643.77079751 260.05791625 631.19540226 222.42700286 608 193 C607.27425781 192.06542969 606.54851562 191.13085938 605.80078125 190.16796875 C566.49727294 140.84453552 509.32913919 122.72302858 448.5703125 115.578125 C413.44209649 111.79341234 377.86354364 112.86078267 342.58668566 112.89660219 C335.18539335 112.90394558 327.7841092 112.90461152 320.3828125 112.90539551 C300.92187276 112.91060665 281.46093615 112.92456785 262 112.9375 C218.44 112.958125 174.88 112.97875 130 113 Z " fill="#F4F9FF" transform="translate(599,562)"/>
<path d="" fill="#FFFFFF" transform="translate(0,0)"/>
</svg>
